<?xml version="1.0" standalone="no"?><!DOCTYPE svg PUBLIC "-//W3C//DTD SVG 1.1//EN" "http://www.w3.org/Graphics/SVG/1.1/DTD/svg11.dtd"><svg t="1577080921450" class="icon" viewBox="0 0 1024 1024" version="1.1" xmlns="http://www.w3.org/2000/svg" p-id="7658" xmlns:xlink="http://www.w3.org/1999/xlink" width="200" height="200"><defs><style type="text/css"></style></defs><path d="M699.317073 951.171122s-6.793366-65.93561-1.998049-98.403902c3.896195-26.374244 17.083317-50.650537 24.675903-76.225561 11.588683-39.561366 24.775805-78.823024 31.868878-119.483318 7.892293-44.356683-1.298732-91.410732 11.988293-134.36878 9.490732-30.670049 31.96878-55.545756 47.054048-84.017951 9.890341-18.781659 20.280195-37.363512 28.172488-57.044293 14.885463-36.963902 41.659317-74.727024 35.665171-114.188488-1.998049-13.287024-10.289951-28.871805-22.977561-33.067707-10.689561-3.496585-23.676878 3.29678-31.669073 11.089171-19.880585 19.281171-18.282146 52.348878-29.47122 77.724097-11.189073 25.175415-37.363512 73.628098-37.363512 73.628098-10.589659 26.474146-38.862049 30.570146-56.245073 20.679805-16.983415-9.590634-10.689561-37.962927-10.789464-57.443903-0.199805-30.670049 11.988293-60.241171 15.984391-90.711414 5.494634-42.558439 23.77678-87.414634 11.08917-128.374635-4.595512-14.885463-14.485854-31.868878-29.371317-35.964878-12.68761-3.496585-28.572098 3.69639-37.063805 13.886439-20.87961 24.775805-12.587707 63.438049-17.882536 95.306927-4.595512 27.87278-7.992195 55.745561-11.88839 83.718244-3.996098 27.972683-11.88839 83.718244-11.888391 83.718244l-21.379122-3.196878s-4.995122-68.333268-9.091122-102.300098c-3.996098-31.768976-9.490732-63.537951-15.18517-95.007219-5.994146-33.16761 0.599415-72.429268-20.08039-99.10322-7.992195-10.289951-22.278244-19.281171-35.065757-17.083317-14.585756 2.597463-25.575024 18.082341-30.769951 31.868878-12.288 32.768 1.698341 70.131512 4.89522 104.897561 4.295805 45.955122 19.980488 91.111024 18.981463 137.365854-0.299707 13.886439-7.592585 41.059902-7.592585 41.059902l-30.769951 7.292879s-39.761171-110.891707-55.246049-167.636293c-6.193951-22.378146-1.498537-49.251902-14.985366-68.133464-8.092098-11.288976-21.678829-22.478049-35.465366-21.479024-14.485854 1.098927-28.372293 14.086244-33.367415 27.672976-17.782634 48.35278 17.383024 101.60078 27.073561 152.251317 7.492683 38.961951 22.378146 77.02478 23.876683 116.686049C374.634146 468.642341 357.251122 551.461463 357.251122 551.461463s-32.867902-21.27922-47.853268-33.866926c-22.178341-18.681756-35.165659-49.451707-61.539903-61.739708-22.577951-10.589659-51.449756-16.284098-74.527219-6.793366-13.08722 5.294829-27.273366 17.982439-26.773854 31.569171 0.699317 19.081366 26.274341 27.672976 39.561366 41.35961 18.781659 19.381073 40.360585 36.264585 56.744585 57.74361 14.885463 19.580878 24.875707 42.458537 37.063805 64.037463 9.990244 17.782634 17.18322 37.26361 29.371317 53.447805 22.877659 30.370341 53.947317 53.64761 81.120781 80.221658 10.589659 10.289951 24.576 17.982439 31.868878 30.769952 7.79239 13.786537 8.99122 30.470244 10.889366 46.154927 2.897171 25.175415 0.099902 76.225561 0.099902 76.225561 119.083707 33.767024 156.04761 34.366439 266.040195 20.579902z" p-id="7659"></path></svg>