<?xml version="1.0" standalone="no"?><!DOCTYPE svg PUBLIC "-//W3C//DTD SVG 1.1//EN" "http://www.w3.org/Graphics/SVG/1.1/DTD/svg11.dtd"><svg t="1577081018529" class="icon" viewBox="0 0 1025 1024" version="1.1" xmlns="http://www.w3.org/2000/svg" p-id="10640" xmlns:xlink="http://www.w3.org/1999/xlink" width="200.1953125" height="200"><defs><style type="text/css"></style></defs><path d="M941.8 1024H82.2C36.8 1024 0 987.2 0 941.8V82.2C0 36.8 36.8 0 82.2 0h859.6c45.4 0 82.2 36.8 82.2 82.2v859.6c0 45.4-36.8 82.2-82.2 82.2z" fill="#EF9B6C" p-id="10641"></path><path d="M111.1 307.6h176.6v16.6H111.1zM277 249.9l-140-83.8 5.5-15 140 83.8zM277 381.8l-140 83.8 5.5 15 140-83.7z" fill="#142E3F" p-id="10642"></path><path d="M736.6 307.6h176.6v16.6H736.6zM747.3 249.9l140-83.8-5.5-15-140 83.8zM747.3 381.8l140 83.8-5.5 15-140-83.7z" fill="#142E3F" p-id="10643"></path><path d="M732.5 949.5L674 454.1h9.9c11.8 0 21.3-9.6 21.3-21.3v-56.5c0-11.8-9.6-21.3-21.3-21.3h-19.7V244h43v-14.6L520.3 58.3 311.9 229.4V244h43v110.9h-19.7c-11.8 0-21.3 9.6-21.3 21.3v56.5c0 11.8 9.6 21.3 21.3 21.3h9.9l-58.5 495.4h-66.2V966h197.3V829.6c0-50.7 41.1-91.8 91.8-91.8s91.8 41.1 91.8 91.8v136.5H804v-16.6h-71.5zM373.2 244h272.7v110.9H373.2V244z m136.3 416c-41.5 0-75.2-33.7-75.2-75.2s33.7-75.2 75.2-75.2 75.2 33.7 75.2 75.2c0.1 41.5-33.6 75.2-75.2 75.2z" fill="#142E3F" p-id="10644"></path></svg>